<?xml version="1.0" encoding="utf-8"?>
<svg xmlns="http://www.w3.org/2000/svg" xmlns:xlink="http://www.w3.org/1999/xlink" style="margin: auto; background: none; display: block; shape-rendering: auto;" width="200px" height="200px" viewBox="0 0 100 100" preserveAspectRatio="xMidYMid">
<g transform="translate(50 50)">
<g>
<animateTransform attributeName="transform" type="rotate" values="0;72" keyTimes="0;1" dur="1s" repeatCount="indefinite"></animateTransform><path d="M3 -4 L36 -4 L36 4 L3 4 A5 5 0 0 1 4.731277048305457 1.6171015713856705 L4.731277048305457 1.6171015713856705 L14.928837862678726 33.00196660912574 L7.320385732317499 35.47410256412532 L-2.8771750820557718 4.089237526385251 A5 5 0 0 1 -0.07590997395494894 4.999423734377209 L-0.07590997395494894 4.999423734377209 L-26.773470788328215 24.396337060028827 L-31.475752806667998 17.924201105029248 L-4.778191992294735 -1.4727122206223702 A5 5 0 0 1 -4.778191992294735 1.4727122206223715 L-4.778191992294735 1.4727122206223715 L-31.475752806668005 -17.92420110502924 L-26.77347078832822 -24.39633706002882 L-0.07590997395495017 -4.999423734377209 A5 5 0 0 1 -2.877175082055773 -4.08923752638525 L-2.877175082055773 -4.08923752638525 L7.320385732317483 -35.47410256412532 L14.928837862678712 -33.001966609125745 L4.731277048305456 -1.6171015713856716 A5 5 0 0 1 2.9999999999999987 -4.000000000000001 M0 0A0 0 0 1 0 0 0 A0 0 0 1 0 0 0" fill="#93dbe9"></path></g></g>
<!-- [ldio] generated by https://loading.io/ --></svg>